<svg xmlns="http://www.w3.org/2000/svg" viewBox="0 0 24 24" fill="#e60023">
  <circle cx="12" cy="12" r="12" fill="#e60023"/>
  <path d="M12.017 4C7.596 4 4 7.596 4 12.017c0 3.395 2.115 6.297 5.093 7.458-.07-.63-.133-1.6.028-2.288l.987-4.185s-.252-.504-.252-1.25c0-1.171.679-2.046 1.523-2.046.718 0 1.065.539 1.065 1.185 0 .722-.46 1.802-.698 2.802-.198.839.421 1.523 1.248 1.523 1.498 0 2.65-1.58 2.65-3.86 0-2.018-1.45-3.43-3.52-3.43-2.398 0-3.805 1.799-3.805 3.658 0 .725.279 1.503.627 1.925.069.084.079.158.058.243-.064.269-.208.847-.236.965-.037.156-.123.189-.283.113-1.056-.492-1.716-2.036-1.716-3.277 0-2.668 1.939-5.118 5.589-5.118 2.934 0 5.215 2.091 5.215 4.887 0 2.915-1.838 5.261-4.389 5.261-.857 0-1.662-.445-1.938-.971l-.527 2.01c-.191.734-.707 1.654-1.053 2.217.781.242 1.611.373 2.472.373 4.421 0 8.017-3.596 8.017-8.017C20.034 7.596 16.438 4 12.017 4z" fill="#ffffff"/>
</svg>
